<svg xmlns="http://www.w3.org/2000/svg" width="1200" height="1600" viewBox="0 0 1200 1600">
  <defs>
    <linearGradient id="bg" x1="0" y1="0" x2="1" y2="1">
      <stop offset="0" stop-color="#0b1020"/>
      <stop offset="0.5" stop-color="#1d4ed8"/>
      <stop offset="1" stop-color="#7c3aed"/>
    </linearGradient>
    <linearGradient id="accent" x1="0" y1="1" x2="1" y2="0">
      <stop offset="0" stop-color="#f97316" stop-opacity="0.95"/>
      <stop offset="1" stop-color="#60a5fa" stop-opacity="0.95"/>
    </linearGradient>
  </defs>
  <rect width="1200" height="1600" fill="url(#bg)"/>
  <rect x="70" y="110" width="1060" height="1380" rx="44" fill="#ffffff" opacity="0.06"/>
  <g opacity="0.95" fill="none" stroke="url(#accent)" stroke-width="18">
    <path d="M130 540 H 1070" opacity="0.5"/>
    <path d="M250 620 C 420 520, 580 700, 730 610 S 1000 600, 1080 700" />
    <path d="M200 900 C 380 830, 540 980, 700 920 S 970 860, 1080 980" opacity="0.9"/>
  </g>
  <text x="120" y="610" font-family="Plus Jakarta Sans, system-ui, sans-serif" font-size="68" fill="#ffffff" font-weight="900">EVENT</text>
  <text x="120" y="690" font-family="Plus Jakarta Sans, system-ui, sans-serif" font-size="40" fill="#e0f2fe" opacity="0.98">Promotion Poster</text>
  <text x="120" y="790" font-family="Plus Jakarta Sans, system-ui, sans-serif" font-size="24" fill="#e5e7eb" opacity="0.85">Bold readability " Clear hierarchy</text>
  <g opacity="0.95">
    <rect x="120" y="1030" width="460" height="78" rx="39" fill="#ffffff" opacity="0.12" stroke="#ffffff" stroke-opacity="0.22"/>
    <text x="160" y="1082" font-family="Plus Jakarta Sans, system-ui, sans-serif" font-size="26" fill="#ffffff" font-weight="800">View Design</text>
  </g>
  <g opacity="0.35">
    <rect x="770" y="310" width="300" height="220" rx="40" fill="#60a5fa"/>
    <rect x="820" y="360" width="220" height="140" rx="30" fill="#f97316"/>
  </g>
</svg>

