<svg xmlns="http://www.w3.org/2000/svg" width="1200" height="1600" viewBox="0 0 1200 1600">
  <defs>
    <linearGradient id="bg" x1="0" y1="0" x2="1" y2="1">
      <stop offset="0" stop-color="#0f172a"/>
      <stop offset="0.4" stop-color="#7c3aed"/>
      <stop offset="1" stop-color="#f97316"/>
    </linearGradient>
    <linearGradient id="accent" x1="0" y1="1" x2="1" y2="0">
      <stop offset="0" stop-color="#22c55e" stop-opacity="0.95"/>
      <stop offset="1" stop-color="#60a5fa" stop-opacity="0.95"/>
    </linearGradient>
  </defs>
  <rect width="1200" height="1600" fill="url(#bg)"/>
  <rect x="70" y="110" width="1060" height="1380" rx="44" fill="#ffffff" opacity="0.06"/>
  <g opacity="0.9" stroke="url(#accent)" stroke-width="18" fill="none">
    <path d="M140 520 C 260 410, 420 650, 540 520 S 820 520, 980 640"/>
    <path d="M160 740 C 320 620, 430 840, 580 740 S 860 740, 1040 880"/>
  </g>
  <text x="120" y="610" font-family="Plus Jakarta Sans, system-ui, sans-serif" font-size="74" fill="#ffffff" font-weight="900">PONGAL</text>
  <text x="120" y="695" font-family="Plus Jakarta Sans, system-ui, sans-serif" font-size="38" fill="#ffe4e6" opacity="0.98">Festival Vibrance</text>
  <text x="120" y="790" font-family="Plus Jakarta Sans, system-ui, sans-serif" font-size="24" fill="#e5e7eb" opacity="0.85">Posters " Offers " Social-ready</text>
  <g opacity="0.95">
    <rect x="120" y="1030" width="420" height="76" rx="38" fill="#ffffff" opacity="0.12" stroke="#ffffff" stroke-opacity="0.22"/>
    <text x="160" y="1080" font-family="Plus Jakarta Sans, system-ui, sans-serif" font-size="26" fill="#ffffff" font-weight="800">View Design</text>
  </g>
  <g opacity="0.35">
    <circle cx="980" cy="540" r="120" fill="#60a5fa"/>
    <circle cx="1040" cy="620" r="70" fill="#22c55e"/>
  </g>
</svg>

