<svg xmlns="http://www.w3.org/2000/svg" width="1200" height="1600" viewBox="0 0 1200 1600">
  <defs>
    <linearGradient id="bg" x1="0" y1="0" x2="1" y2="1">
      <stop offset="0" stop-color="#0b1020"/>
      <stop offset="0.45" stop-color="#7c3aed"/>
      <stop offset="1" stop-color="#0ea5e9"/>
    </linearGradient>
    <linearGradient id="accent" x1="0" y1="1" x2="1" y2="0">
      <stop offset="0" stop-color="#f472b6" stop-opacity="0.95"/>
      <stop offset="1" stop-color="#60a5fa" stop-opacity="0.95"/>
    </linearGradient>
  </defs>
  <rect width="1200" height="1600" fill="url(#bg)"/>
  <rect x="70" y="110" width="1060" height="1380" rx="44" fill="#ffffff" opacity="0.06"/>
  <g opacity="0.95" fill="none" stroke="url(#accent)" stroke-width="18">
    <path d="M150 500 C 330 360, 530 650, 700 520 S 990 520, 1050 650" />
    <path d="M200 740 C 420 620, 560 860, 740 760 S 980 740, 1060 900" opacity="0.9"/>
  </g>
  <text x="120" y="620" font-family="Plus Jakarta Sans, system-ui, sans-serif" font-size="62" fill="#ffffff" font-weight="900">SOCIAL</text>
  <text x="120" y="700" font-family="Plus Jakarta Sans, system-ui, sans-serif" font-size="40" fill="#fff7ed" opacity="0.98">Media Poster</text>
  <text x="120" y="800" font-family="Plus Jakarta Sans, system-ui, sans-serif" font-size="24" fill="#e5e7eb" opacity="0.85">Optimized for Instagram feeds</text>
  <g opacity="0.95">
    <rect x="120" y="1030" width="470" height="78" rx="39" fill="#ffffff" opacity="0.12" stroke="#ffffff" stroke-opacity="0.22"/>
    <text x="160" y="1082" font-family="Plus Jakarta Sans, system-ui, sans-serif" font-size="26" fill="#ffffff" font-weight="800">View Design</text>
  </g>
  <g opacity="0.35">
    <circle cx="940" cy="520" r="140" fill="#f472b6"/>
    <circle cx="1040" cy="610" r="80" fill="#0ea5e9"/>
  </g>
</svg>

